<svg width="67" height="67" viewBox="0 0 67 67" fill="none" xmlns="http://www.w3.org/2000/svg">
<path d="M1 33.5C1 51.4493 15.5507 66 33.5 66C51.4493 66 66 51.4493 66 33.5C66 15.5507 51.4493 1 33.5 1C15.5507 1 1 15.5507 1 33.5ZM1 33.5C1 43.7419 9.0832 52 19 52C28.9168 52 37 43.7419 37 33.5C37 23.2581 28.9168 15 19 15C9.0832 15 1 23.2581 1 33.5ZM1 33C1 49.5685 14.4315 63 31 63C47.5685 63 61 49.5685 61 33C61 16.4315 47.5685 3 31 3C14.4315 3 1 16.4315 1 33ZM1 33C1 47.9117 13.0883 60 28 60C42.9117 60 55 47.9117 55 33C55 18.0883 42.9117 6 28 6C13.0883 6 1 18.0883 1 33ZM1 33C1 45.7025 11.2975 56 24 56C36.7025 56 47 45.7025 47 33C47 20.2975 36.7025 10 24 10C11.2975 10 1 20.2975 1 33ZM1 33C1 40.732 7.26801 47 15 47C22.732 47 29 40.732 29 33C29 25.268 22.732 19 15 19C7.26801 19 1 25.268 1 33Z" stroke="white" stroke-width="2"/>
</svg>
